<?xml version="1.0" encoding="utf-8"?>
<!-- Generator: Adobe Illustrator 25.2.1, SVG Export Plug-In . SVG Version: 6.00 Build 0)  -->
<svg version="1.1" id="レイヤー_1" xmlns="http://www.w3.org/2000/svg" xmlns:xlink="http://www.w3.org/1999/xlink" x="0px"
	 y="0px" width="16px" height="19.8px" viewBox="0 0 16 19.8" style="enable-background:new 0 0 16 19.8;" xml:space="preserve">
<style type="text/css">
	.st0{fill:#FD4233;}
	.st1{fill:#FF402F;}
</style>
<g>
	<path class="st0" d="M8.1,1.1c0.1,0,0.2,0,0.3,0.2l6.3,6.3c0.1,0.1,0.2,0.2,0.2,0.3v10.4c0,0.2-0.2,0.4-0.5,0.4H1.6
		c-0.3,0-0.5-0.2-0.5-0.5V1.6c0-0.3,0.2-0.5,0.5-0.5H8.1 M8.1,0H1.6C0.7,0,0,0.7,0,1.6v16.6c0,0.9,0.7,1.6,1.6,1.6h12.8
		c0.9,0,1.6-0.7,1.6-1.5V7.9c0-0.4-0.2-0.8-0.5-1.1L9.2,0.5C8.9,0.2,8.5,0,8.1,0L8.1,0z"/>
</g>
<g id="グループ_16" transform="translate(3.204 6.498)">
	<g id="グループ_15">
		<path id="パス_61" class="st1" d="M9.6,6c0-0.1-0.1-0.2-0.1-0.3C9.1,5.5,8.6,5.4,8.2,5.5c-0.5,0-1,0-1.5,0.1
			C6.4,5.5,6.2,5.3,5.9,5.1c-0.6-0.6-1-1.2-1.3-2c0-0.1,0-0.1,0.1-0.2c0.1-0.8,0.2-1.5,0.2-2.3c0-0.1,0-0.1,0-0.2V0.3
			C4.8,0.2,4.6,0,4.4,0H4.2l0,0C4,0,3.8,0.1,3.7,0.4c-0.1,1,0,2.1,0.4,3L3.9,3.6C3.7,4.2,3.4,4.8,3.1,5.3v0.1C2.8,6,2.5,6.4,2.3,6.9
			L2,7c0,0-0.4,0.2-0.5,0.3C0.8,7.6,0.3,8.1,0,8.8c0,0.1,0,0.3,0.1,0.4l0.2,0.1c0.1,0.1,0.2,0.1,0.3,0.1C1.3,9.4,2,8.6,3,7
			c1.1-0.4,2.3-0.6,3.4-0.8C7.1,6.6,8,6.9,8.9,7C9,7,9.1,7,9.2,7s0.2-0.1,0.3-0.2C9.6,6.5,9.6,6.3,9.6,6z M0.6,8.9
			c0.3-0.6,0.7-1,1.2-1.4c0,0,0.1-0.1,0.2-0.2C1.7,8,1.2,8.5,0.6,8.9L0.6,8.9z M4.3,0.3c0.2,0,0.3,0.5,0.3,0.9s-0.1,0.7-0.2,1
			C4.3,1.8,4.3,1.4,4.3,1C4.3,1,4.2,0.3,4.3,0.3L4.3,0.3z M3.2,6.5C3.3,6.2,3.5,6,3.6,5.7c0.3-0.5,0.5-1,0.7-1.6
			C4.6,4.7,5,5.2,5.5,5.6c0.1,0.1,0.1,0.1,0.2,0.2C4.9,5.9,4,6.2,3.2,6.5L3.2,6.5z M9.3,6.4C9.1,6.4,9,6.5,8.9,6.5
			C8.4,6.4,8,6.3,7.5,6C7.8,6,8,6,8.2,6S8.7,6,9,6.1S9.3,6.4,9.3,6.4L9.3,6.4z"/>
	</g>
</g>
</svg>
