<?xml version="1.0" encoding="UTF-8"?>
<svg id="_レイヤー_1" xmlns="http://www.w3.org/2000/svg" width="150" height="40" version="1.1" xmlns:xlink="http://www.w3.org/1999/xlink" viewBox="0 0 150 40">
  <!-- Generator: Adobe Illustrator 30.0.0, SVG Export Plug-In . SVG Version: 2.1.1 Build 123)  -->
  <defs>
    <style>
      .st0 {
        fill: url(#_名称未設定グラデーション_2);
      }

      .st1 {
        fill: #1c2c65;
      }

      .st2 {
        fill: #1e7cb0;
      }

      .st3 {
        fill: #929292;
      }

      .st4 {
        fill: url(#_名称未設定グラデーション_4);
      }

      .st5 {
        fill: url(#_名称未設定グラデーション_3);
      }

      .st6 {
        fill: #06496d;
      }

      .st7 {
        fill: #31ab4a;
      }

      .st8 {
        fill: url(#_名称未設定グラデーション_7);
      }

      .st9 {
        fill: #514f50;
      }
    </style>
    <linearGradient id="_名称未設定グラデーション_7" data-name="名称未設定グラデーション 7" x1="71.4002667" y1="23.5652573" x2="71.4002667" y2="23.5652573" gradientTransform="translate(0 42) scale(1 -1)" gradientUnits="userSpaceOnUse">
      <stop offset=".0060143" stop-color="#a6aeab"/>
      <stop offset=".2450818" stop-color="#94a79f"/>
      <stop offset=".7199723" stop-color="#669581"/>
      <stop offset=".9910591" stop-color="#4a8a6f"/>
    </linearGradient>
    <linearGradient id="_名称未設定グラデーション_2" data-name="名称未設定グラデーション 2" x1="72.1689156" y1="26.7782209" x2="91.1826838" y2="36.9282527" gradientTransform="translate(0 42) scale(1 -1)" gradientUnits="userSpaceOnUse">
      <stop offset=".0060135" stop-color="#929292"/>
      <stop offset=".2451388" stop-color="#949595"/>
      <stop offset=".4694051" stop-color="#9ba19f"/>
      <stop offset=".6877489" stop-color="#a6b4af"/>
      <stop offset=".9011629" stop-color="#b6cec7"/>
      <stop offset=".9910583" stop-color="#bfdcd3"/>
    </linearGradient>
    <linearGradient id="_名称未設定グラデーション_3" data-name="名称未設定グラデーション 3" x1="59.8949569" y1="30.6910125" x2="78.1343184" y2="23.8673734" gradientTransform="translate(0 42) scale(1 -1)" gradientUnits="userSpaceOnUse">
      <stop offset=".0056136" stop-color="#b1c7db"/>
      <stop offset=".1673507" stop-color="#a2c2c9"/>
      <stop offset=".4898518" stop-color="#7bb79c"/>
      <stop offset=".939205" stop-color="#3ea453"/>
      <stop offset=".9999976" stop-color="#36a249"/>
    </linearGradient>
    <linearGradient id="_名称未設定グラデーション_4" data-name="名称未設定グラデーション 4" x1="78.160562" y1="6.4351059" x2="77.7552191" y2="28.5403119" gradientTransform="translate(0 42) scale(1 -1)" gradientUnits="userSpaceOnUse">
      <stop offset=".0184353" stop-color="#e5e7e4"/>
      <stop offset=".2102555" stop-color="#abc6d1"/>
      <stop offset=".4019687" stop-color="#7aa9c1"/>
      <stop offset=".5819724" stop-color="#5393b5"/>
      <stop offset=".7468761" stop-color="#3783ac"/>
      <stop offset=".8914389" stop-color="#2679a6"/>
      <stop offset=".9999976" stop-color="#2176a5"/>
    </linearGradient>
  </defs>
  <g>
    <path class="st8" d="M71.4002667,18.4347427"/>
    <path class="st0" d="M71.4002667,18.4347427s.2010897-1.7154071,2.4313212-5.3067037c2.2302742-3.5912906,7.917771-7.850548,10.5621353-8.6144693,2.7070923-.7820527,4.5942102-.8215716,5.4442504-.6316559.8500876.1899204,1.5068081.3436176,1.5068081.3436176l-.8350784,2.2876343s-1.0176529-.0787949-2.5203296.1432025c-2.6613634.3931782-5.4304446,1.9479206-5.430492,1.9479372-3.8867056,2.15237-5.9742642,5.0702264-6.4218313,5.7149876-1.1485099,1.6545861-1.8175723,3.2077769-2.2109915,4.31874l-2.5258065-.2032904h.0000142Z"/>
    <g>
      <path class="st6" d="M60.3954916,9.0631449"/>
      <path class="st5" d="M77.4233298,17.0140553c-.4834604.0571753-.9870659-.385461-1.4996493-.3901525-.7923627-.027601-1.8393565-.1397723-2.3211351-.2126522-2.918624-.4898233-5.9742642-1.8001184-8.262178-3.6877634-2.0791443-1.7151702-2.6606717-2.7656096-2.8219831-3.246713.2936751-.0607073.7215663-.0908644,1.2493769-.0789572-1.236476-.1613386-2.385417-.0277621-3.3040175.3908217.023902.3046383.077832.7415087.2129104,1.2493284.6850665,2.5755376,2.6855213,4.0734624,3.6844978,4.8003125,3.7735015,2.7456174,8.2274928,2.7782891,11.0550381,2.7990286,1.0777135.007905,1.9642108-.0507036,2.5497938-.1022173l.028346-.0282797c-.1680438-.8277514-.5629743-1.387144-.5710001-1.4927559Z"/>
      <path class="st6" d="M60.4598446,9.7727625c-.0178756-.0784787-.0319278-.1541337-.0424741-.2269271.0105463.0728123.0245606.1483951.0424741.2269271Z"/>
      <path class="st6" d="M77.4233251,17.0140577c.0040034-.0004821.0082958-.0005543.0122992-.0010364-.0102952-.0141043-.0132278-.0111373-.0122992.0010364Z"/>
      <path class="st6" d="M60.4123628,9.5074714c-.0095798-.0739565-.0166627-.1458568-.0195907-.2138603.0028948.0680035.0100109.1399038.0195907.2138603Z"/>
      <path class="st6" d="M60.3937718,9.1011323c-.0027905.0614062-.0038234.1247797-.0009997.1919245-.0028616-.0671803-.001753-.1304828.0009997-.1919245Z"/>
      <path class="st6" d="M67.8077715,10.0558771c.0222391.0063107.0448003.0130679.0671104.0194675-.022348-.0064173-.0448003-.0131568-.0671104-.0194675Z"/>
      <path class="st6" d="M68.5127556,10.2695941c.0041455.001323.0081537.0025383.0122992.0038613-.0041455-.001323-.0081537-.0025205-.0122992-.0038613Z"/>
      <path class="st6" d="M64.2202604,9.4176055c.0123371.0007687.0248117.0015907.037253.0024139-.0124793-.0008042-.0248827-.0016452-.037253-.0024139Z"/>
      <path class="st6" d="M69.172982,10.4978264c.0329654.0120126.0658597.0240264.0988961.0362723-.0330364-.0122637-.0659307-.0242585-.0988961-.0362723Z"/>
      <path class="st6" d="M69.9234866,10.788878c.0181978.0075082.0364666.0155884.0546691.0231866-.0181978-.0075982-.0364666-.0156784-.0546691-.0231866Z"/>
    </g>
    <path class="st7" d="M77.9659934,18.5350956s7.1521624-.9724735,11.4672141-4.8199765c4.3150517-3.8475018,3.9883923-6.7149005,3.8732551-7.098098s-.6570048-1.5726678-1.1183114-1.8831773-.9845075-.5503304-.9845075-.5503304c0,0-.5234282,3.3379487-4.7044106,7.6693161-2.7914435,2.8918556-8.7133269,5.0187352-8.6627181,4.9930968,0,0,.1294831,1.689167.1294784,1.6891694Z"/>
    <path class="st3" d="M73.3387657,21.3878245c.1624769-1.542211.488165-2.4909886.5962808-2.7738545-.7443028-.0213128-1.6886577-.0810774-2.5347798-.1792273-1.0970815,2.0946439-1.950495,6.4264909-.8141943,11.3747187,1.0759416,4.6854761,4.0083714,6.4110671,4.7867577,6.403797.7040934-.0065784,1.0554507-.2760932,1.0554934-.2761145.2181741-.1655399.4175818-.3481428.4175818-.3481428,0,0-2.8847964-4.3352867-3.3233475-8.034988-.4385038-3.6997037-.3802198-4.3012885-.1837921-6.1661886Z"/>
    <path class="st2" d="M73.8315879,13.128039c.3039418-.4894134.6738049-.9912955,1.0897048-1.4949897-1.7905196-1.6187461-5.0339221-3.5813401-7.0464108-4.1163143-3.9353293-1.0460658-6.0876862-.3501054-7.1028849.6651348l-.0972426.0971147-.0680817.1192685c-.1533756.2682842-.3115791.7500616-.1433648,1.4696214.918771-.4189179,2.0680579-.5525536,3.304965-.3911558,2.3633296.0535403,6.4538017.7608258,10.0623627,3.6529147.0003459-.0005389.0006017-.0010565.0009523-.0015943Z"/>
    <path class="st4" d="M76.1370647,14.3192812c-.1527692.220094-.2957881.4379222-.432122.6536374.3002748.8831371,2.0551143,6.2869223,1.8029468,11.2443295-.0954754,1.87728-.515772,4.4142794-1.9122707,7.3976592l1.2502818,1.9740938c1.1071777-1.4383853,2.4619082-3.6262305,3.1713079-6.5310462,1.8515231-7.5816431-2.2117685-14.0623637-3.2508645-15.5801338-.309594.3869711-.5194864.6832768-.6292794.8414601Z"/>
  </g>
  <g>
    <path class="st1" d="M99.8819964,31.6852347h-.9740844c-2.8315723,0-4.8865777-2.685346-4.8865777-6.3853742,0-3.6891219,2.0550053-6.3667927,4.8865777-6.3667927h1.2065475v1.5230302h-1.1802908c-2.1109583,0-3.6430756,2.037035-3.6430756,4.8437625,0,2.8172311,1.5321172,4.8621426,3.6430756,4.8621426h1.3438858l-.3960582,1.5232316Z"/>
    <path class="st1" d="M107.4345426,31.6852347h-1.3959918l-3.1965223-6.7240722h1.2574406c1.2093712,0,1.7506419-1.1221253,1.7506419-2.2341544,0-1.1304069-.5291514-2.2709124-1.7112616-2.2709124h-1.8556686v11.2291391h-1.2301795v-12.7521669h3.1383615c1.7007627,0,2.8887287,1.5601909,2.8887287,3.7939426,0,1.8376936-.9336902,3.2841781-2.2499075,3.541685,0,0,2.6043586,5.4165416,2.6043586,5.4165393Z"/>
    <g>
      <path class="st1" d="M119.9756705,31.6852347h-.5273321l-.3960582-1.5232316h.8444212c2.0045197,0,3.4592787-2.0449115,3.4592787-4.8621426,0-2.8067299-1.4547685-4.8437625-3.4592787-4.8437625h-1.5270668v11.2291367h-1.2299805v-12.7521669h2.7966266c2.7170606,0,4.6892593,2.6776731,4.6892593,6.3667927,0,3.7000282-1.9556449,6.3853742-4.6498695,6.3853742Z"/>
      <path class="st1" d="M126.5341295,31.6852347h-1.1451461l-.3960582-1.5232316h1.501625c1.1768607,0,2.3682569-.9882219,2.3682569-2.8772159,0-1.1298005-.3576823-1.890811-1.5943241-3.393239-1.4319419-1.761553-2.1151939-2.7017078-2.006339-4.8114486l.0076752-.1470318h1.3261098l-.0123182.1666224c-.1161321,1.5684725.2843701,2.1315558,1.5680674,3.6751858,1.2548159,1.5444378,1.9806888,2.7738095,1.9806888,4.4915334,0,2.6017339-1.4796038,4.4188253-3.5982374,4.4188253Z"/>
      <path class="st1" d="M136.2614422,31.6852347h-5.3086935v-12.7521669h5.4882359v1.5230302h-4.2580564v4.0088334h3.9952999v1.5232316h-3.9952999v4.1738402h4.4743637l-.3958497,1.5232316Z"/>
      <path class="st1" d="M143.0034895,31.6852347h-.9740844c-2.8313733,0-4.8863787-2.685346-4.8863787-6.3853742,0-3.6891219,2.0550053-6.3667927,4.8863787-6.3667927h1.2065475v1.5230302h-1.1800919c-2.1111573,0-3.6432746,2.037035-3.6432746,4.8437625,0,2.8172311,1.5321172,4.8621426,3.6432746,4.8621426h1.3438858l-.3962571,1.5232316Z"/>
      <path class="st1" d="M112.557023,18.7860266h-.5398588l-4.228578,12.8991987h1.3259108l1.0910219-3.3999051h4.1504143l1.1039465,3.3999051h1.3257118s-4.228578-12.8991987-4.2285685-12.8991987ZM110.6993361,26.7804688l1.5755436-4.9094018,1.5991755,4.9094018h-3.1747191Z"/>
    </g>
  </g>
  <g>
    <path class="st9" d="M11.0760917,31.4282655h-1.3622642v-11.4440298h-3.3175029v-1.4547661h7.997472v1.4547661h-3.3177049s0,11.4440322,0,11.4440298Z"/>
    <path class="st9" d="M15.0850625,31.4282655h-1.3459053v-4.5569714c0-.9219784.1181504-1.6793527.35122-2.2515231h0c.2397344-.5879258.6422537-1.0336641,1.1962476-1.3249016.5434915-.285782,1.2784478-.4305917,2.1840668-.4305917h.1551109v1.2976358h-.1551109c-.619028,0-1.1063722.0918937-1.448504.27326-.3366786.1781352-.5699495.4404889-.7133462.8020088-.1484448.3738404-.2237788.8854219-.2237788,1.5206068v4.6704764Z"/>
    <path class="st9" d="M32.1620136,31.4282655h-1.3459041v-4.2009047c0-.6388212-.1349126-1.2041242-.4009025-1.6801605-.2651822-.4740157-.6291254-.8434121-1.0817335-1.0978893-.454425-.2550836-.9706519-.3845454-1.5343392-.3845454-.5745937,0-1.0962737.1294594-1.5504974.3847467-.4524044.2542758-.8133202.6230658-1.0728454,1.0964774-.2609419.4762377-.3934311,1.0419457-.3934311,1.681371v4.2009047h-1.3459041v-8.5639878h1.3459041v1.4107357c.2797247-.3623276.6246837-.6598237,1.0310394-.8890557.6141801-.3461695,1.3640829-.52168,2.2287013-.52168.724859,0,1.4095252.181165,2.0350143.5384422h0c.6254915.3576823,1.1348509.8722935,1.5139408,1.5296939.3560667.6186241.5471265,1.3378262.5689392,2.139835h.0020207s0,4.3560144-.0000024,4.3560167Z"/>
    <path class="st9" d="M42.0515782,31.4793623h-1.2960202v-9.5595319h-2.7828965v-1.482989h6.862216v1.482989h-2.7832992v9.5595319Z"/>
    <path class="st9" d="M52.2833396,31.4793623h-4.469318c-.7523238,0-1.3442886-.2488369-1.7597336-.7393068-.4200928-.4958734-.6331643-1.193495-.6331643-2.0733026v-5.4170415c0-.87981.2130762-1.5774292.6331643-2.0733026.4158478-.4907282,1.0078125-.739565,1.7597336-.739565h4.2507886v1.482989h-4.6607805c-.2298384,0-.4000947.0705074-.5208698.2151277-.1169375.1405008-.1738949.3278367-.1738949.5730729v2.4291892h4.2077697v1.4827331h-4.2077697v2.5884776c0,.2452338.0569527.4325697.1738949.5730729.1205761.1446203.2910361.2148695.5208698.2148695h4.8793099s0,1.482989,0,1.4829866Z"/>
    <path class="st9" d="M59.7318303,31.4794594h-4.469318c-.7523238,0-1.3442886-.2488369-1.7597336-.7393068-.4200928-.4961316-.6331643-1.1937508-.6331643-2.0733026v-5.4170438c0-.8795518.2130762-1.5771734.6331643-2.0733026.4158478-.4907282,1.0078125-.739565,1.7597336-.739565h4.2507886v1.482989h-4.6605816c-.2298384,0-.4002985.0702516-.5208698.2151277-.1171412.1405008-.1740939.3278367-.1740939.5730729v2.4291892h4.2079734v1.4827331h-4.2079734v2.5884776c0,.2452338.0569527.4325697.1740939.5728147.1203724.1448761.2908324.2151277.5208698.2151277h4.8791062s0,1.482989.0000047,1.482989Z"/>
    <g>
      <path class="st9" d="M20.4334751,22.3977358c-.2900234,0-.5283448-.091491-.7084983-.2720495-.1805586-.1801535-.2720495-.4184749-.2720495-.7082958,0-.288409.0880573-.526124.261951-.7066802.1755093-.1817691.41181-.2738665.7024399-.2738665.2892168,0,.5273345.091491.7080944.2716445.1807599.1809613.2722509.419484.2722509.7089022,0,.2886104-.0880585.5263254-.2617496.7062775-.1753068.1817691-.4116075.2740678-.7024387.2740678Z"/>
      <path class="st9" d="M21.3176852,31.3979699c-.4794689,0-.8688598-.1868195-1.1528248-.5562159-.2896195-.3764651-.4366513-.9445965-.4366513-1.6886435v-6.2888351h1.3620635v6.2565212c0,.4980504.0918937.7016321.1688445.7846401.0537239.0577628.1339034.1025987.2385228.1330956l.1116881.0325176v1.3249016h-.204996c-.0290828.0014142-.0581655.0020207-.0866466.0020183Z"/>
    </g>
    <g>
      <path class="st9" d="M34.9696863,22.3977358c-.2900246,0-.5283437-.091491-.7084995-.2720495-.1805586-.1801535-.2720495-.4184749-.2720495-.7082958,0-.288409.0880585-.526124.261951-.7066802.1755081-.1817691.4116075-.2738665.7022386-.2738665.2892168,0,.5275359.091491.7082958.2716445.1807599.1809613.2722509.419484.2722509.7089022,0,.2888118-.0882598.5265267-.2621524.7064789-.1749041.1815677-.4112048.2738665-.7020348.2738665Z"/>
      <path class="st9" d="M35.8538953,31.3979699c-.4796702,0-.8690624-.1868195-1.1530274-.5562159-.2896195-.3764651-.4366513-.9445965-.4366513-1.6886435v-6.2888351h1.3620623v6.2565212c0,.4980504.0918937.7014308.1690458.7844388.0537239.0579642.1339034.1028.2385228.133297l.1116881.0325176v1.3249016h-.204996c-.0290828.0014142-.0581655.0020207-.0866442.0020183Z"/>
    </g>
  </g>
</svg>