<?xml version="1.0" encoding="UTF-8"?>
<svg id="_レイヤー_1" data-name="レイヤー_1" xmlns="http://www.w3.org/2000/svg" width="180" height="40" version="1.1" xmlns:xlink="http://www.w3.org/1999/xlink" viewBox="0 0 180 40">
  <!-- Generator: Adobe Illustrator 29.7.1, SVG Export Plug-In . SVG Version: 2.1.1 Build 8)  -->
  <defs>
    <style>
      .st0 {
        fill: url(#_名称未設定グラデーション_5);
      }

      .st1 {
        fill: #0269ac;
      }

      .st2 {
        fill: #01476a;
      }

      .st3 {
        fill: #1c2c65;
      }

      .st4 {
        fill: url(#_名称未設定グラデーション_33);
      }

      .st5 {
        fill: #514e50;
      }

      .st6 {
        fill: url(#_名称未設定グラデーション_3);
      }

      .st7 {
        fill: #b5b4b4;
      }

      .st8 {
        fill: url(#_名称未設定グラデーション_10);
      }

      .st9 {
        fill: #42a648;
      }
    </style>
    <linearGradient id="_名称未設定グラデーション_10" data-name="名称未設定グラデーション 10" x1="97.8762904" y1="18.3625858" x2="97.8762904" y2="18.3625858" gradientUnits="userSpaceOnUse">
      <stop offset=".0060143" stop-color="#a4aca9"/>
      <stop offset=".2450818" stop-color="#92a49d"/>
      <stop offset=".7199723" stop-color="#64917f"/>
      <stop offset=".9910591" stop-color="#48856c"/>
    </linearGradient>
    <linearGradient id="_名称未設定グラデーション_3" data-name="名称未設定グラデーション 3" x1="98.6803737" y1="15.0015093" x2="118.5706625" y2="4.3835707" gradientUnits="userSpaceOnUse">
      <stop offset=".0060135" stop-color="#b5b4b4"/>
      <stop offset=".3186902" stop-color="#b6b7b6"/>
      <stop offset=".6118729" stop-color="#b9c3bf"/>
      <stop offset=".8964067" stop-color="#bed5cd"/>
      <stop offset=".9910584" stop-color="#c1ded4"/>
    </linearGradient>
    <linearGradient id="_名称未設定グラデーション_5" data-name="名称未設定グラデーション 5" x1="85.8405917" y1="10.9083409" x2="104.9207706" y2="18.0465423" gradientUnits="userSpaceOnUse">
      <stop offset=".0056141" stop-color="#b1c9de"/>
      <stop offset=".1636754" stop-color="#a4c3cc"/>
      <stop offset=".4787692" stop-color="#82b69f"/>
      <stop offset=".9177977" stop-color="#4ca256"/>
      <stop offset=".9999976" stop-color="#429e48"/>
    </linearGradient>
    <linearGradient id="_名称未設定グラデーション_33" data-name="名称未設定グラデーション 33" x1="104.9482317" y1="36.2824221" x2="104.5241997" y2="13.1581851" gradientUnits="userSpaceOnUse">
      <stop offset=".0184351" stop-color="#e4e6e4"/>
      <stop offset=".2546271" stop-color="#b3d1d6"/>
      <stop offset=".478861" stop-color="#8cc1cc"/>
      <stop offset=".6844079" stop-color="#70b6c5"/>
      <stop offset=".8646455" stop-color="#5fafc0"/>
      <stop offset=".9999968" stop-color="#5aadbf"/>
    </linearGradient>
  </defs>
  <g>
    <path class="st3" d="M119.6189182,25.5485806c0-3.9933877,2.1968441-6.9219276,5.2723305-6.9219276h1.1716025v1.3515184h-1.1422827c-2.4457053,0-4.2325482,2.2936979-4.2325482,5.5704092s1.7868428,5.5909094,4.2325482,5.5909094h1.2741028l-.3515999,1.3516851h-.9518228c-3.0754864,0-5.2723305-2.9080396-5.2723305-6.9425945Z"/>
    <path class="st3" d="M127.4544718,18.626653h3.3243476c1.8600233,0,3.0461665,1.7201901,3.0461665,4.0548885,0,2.0070273-1.0543231,3.6658832-2.5920663,3.8092185l2.8850265,6.000415h-1.1716025l-3.3977665-7.147264h1.1277419c1.4207021,0,2.1236636-1.2698506,2.1236636-2.6623696,0-1.4745201-.7322814-2.7033701-2.079803-2.7033701h-2.2404663v12.5130037h-1.0252416v-13.8645221Z"/>
    <path class="st3" d="M138.8780135,18.4628174h.3513616l4.5984505,14.0283577h-1.1129628l-1.2302422-3.7887182h-4.8766316l-1.2157015,3.7887182h-1.1129628l4.5986888-14.0283577ZM141.0600785,27.3712721l-2.0211633-6.2052511-1.9916051,6.2052511h4.0127684Z"/>
    <path class="st3" d="M144.6337641,18.626653h2.9436662c2.9288871,0,5.0525507,2.9285399,5.0525507,6.9219276,0,4.0345549-2.1529835,6.9425945-5.0086901,6.9425945h-.4538619l-.3515999-1.3516851h.7175023c2.3141235,0,4.0275475-2.3141982,4.0275475-5.5909094s-1.713424-5.5704092-4.0275475-5.5704092h-1.874564v12.5130037h-1.0250032v-13.8645221Z"/>
    <path class="st3" d="M153.4356812,31.13949h1.4497836c1.405923,0,2.811846-1.1673492,2.811846-3.379046,0-1.2493503-.3661407-2.1298623-1.8159243-3.891053-1.5816038-1.9456932-2.3138852-2.9695404-2.1966057-5.242738h1.1275035c-.1318202,1.7816909.3222801,2.4575335,1.7868428,4.2187241,1.4643244,1.8021912,2.1672859,3.0923754,2.1672859,4.8945666,0,2.8057049-1.5522839,4.7512314-3.8368492,4.7512314h-1.1422827l-.3515999-1.3516851Z"/>
    <path class="st3" d="M160.0262135,18.626653h5.770053v1.3515184h-4.7448114v4.8127322h4.4520895v1.3516851h-4.4520895v4.9969014h4.9352713l-.3513616,1.3516851h-5.6091513v-13.8645221Z"/>
    <path class="st3" d="M166.9242468,25.5485806c0-3.9933877,2.1968441-6.9219276,5.2723305-6.9219276h1.1716025v1.3515184h-1.1422827c-2.4457053,0-4.2325482,2.2936979-4.2325482,5.5704092s1.7868428,5.5909094,4.2325482,5.5909094h1.2741028l-.3515999,1.3516851h-.9518228c-3.0754864,0-5.2723305-2.9080396-5.2723305-6.9425945Z"/>
  </g>
  <g>
    <path class="st5" d="M10.8574947,19.7377831h-4.3574947v-1.2754192h10.0967944v1.2754192h-4.3574947v12.7538456h-1.381805v-12.7538456Z"/>
    <path class="st5" d="M17.043096,23.8295726c.2977074-.7296512.78985-1.2752462,1.4772928-1.636612.6872698-.3613659,1.6118752-.5421353,2.7739891-.5421353v1.2966963c-.8502218,0-1.5163874.12749-1.9979779.382643-.4819365.25498-.8258309.6412558-1.0309912,1.1584812-.2056793.5173984-.3082595,1.2083009-.3082595,2.0723615v5.9306212h-1.3603548v-5.7816811c0-1.1904835.1487672-2.1502048.4463016-2.8803749Z"/>
    <path class="st5" d="M23.91882,20.3328518c-.1985869-.1982409-.2975344-.4603134-.2975344-.7863903,0-.3259039.0956608-.5879764.2869823-.7865633.1913215-.1982409.4495883-.2975344.7758382-.2975344.3257309,0,.5878034.0992934.7863903.2975344.1984139.1985869.2977074.4606593.2977074.7865633,0,.3260769-.0956608.5881493-.2869823.7863903-.1913215.1985869-.4501072.2977074-.7758382.2977074-.3262499,0-.5883223-.0991205-.7865633-.2977074Z"/>
    <path class="st5" d="M30.2418565,25.6619578v6.8296708h-1.3603548v-10.8408033h1.3603548v4.0111325ZM37.2989568,22.3310027c.7934827.4537399,1.4311057,1.0984554,1.9130422,1.9343194.4815905.836383.7227318,1.8068294.7227318,2.9122042h-1.3603548c0-.8784183-.1844021-1.6473371-.5526874-2.3062374-.3686313-.6590732-.8682122-1.1655736-1.4985699-1.5198471-.6307037-.3541005-1.335791-.5314102-2.1150888-.5314102-.7936556,0-1.5058353.1773097-2.136193.5314102-.6307037.3542735-1.126652.8607739-1.4880178,1.5198471-.3613659.6589003-.5419623,1.427819-.5419623,2.3062374h-.7227318c0-1.1617679.2018736-2.1538375.6057938-2.9758627.4039202-.8216792.9953563-1.4523829,1.7750001-1.8919381.7791249-.4390362,1.7217207-.6589003,2.8270955-.6589003.9209727,0,1.7781139.2269565,2.5719425.6801774ZM39.9347307,32.4916286h-1.3603548v-5.3141023h1.3603548v5.3141023Z"/>
    <path class="st5" d="M42.5591729,20.3328518c-.1985869-.1982409-.2975344-.4603134-.2975344-.7863903,0-.3259039.0956608-.5879764.2869823-.7865633.1913215-.1982409.4495883-.2975344.7758382-.2975344.3257309,0,.5878034.0992934.7863903.2975344.1984139.1985869.2977074.4606593.2977074.7865633,0,.3260769-.0956608.5881493-.2869823.7863903-.1913215.1985869-.4501072.2977074-.7758382.2977074-.3262499,0-.5883223-.0991205-.7865633-.2977074Z"/>
    <path class="st5" d="M54.0317835,19.7377831h-4.3574947v-1.2754192h10.0967944v1.2754192h-4.3578407v12.7538456h-1.381459v-12.7538456Z"/>
    <path class="st5" d="M63.1608992,31.5988525c-.5881493-.5952417-.882224-1.4311057-.882224-2.508284v-7.2271446c0-1.0768323.2940747-1.9130422.882224-2.508284.5878034-.5950687,1.4274731-.8927761,2.5190091-.8927761h6.2918141v1.2754192h-6.9294372c-.4393822,0-.7832765.12749-1.0309912.382643-.2480606.25498-.371918.5950687-.371918,1.0202661v3.5923816h6.5467942v1.2754192h-6.5467942v3.8048073c0,.4251974.1238573.7652861.371918,1.0202661.2477147.255153.591609.382643,1.0309912.382643h7.2695259v1.2754192h-6.6319028c-1.091536,0-1.9312057-.2975344-2.5190091-.8927761Z"/>
    <path class="st5" d="M75.9784033,31.5988525c-.5881493-.5952417-.882224-1.4311057-.882224-2.508284v-7.2271446c0-1.0768323.2940747-1.9130422.882224-2.508284.5878034-.5950687,1.4274731-.8927761,2.5190091-.8927761h6.2918141v1.2754192h-6.9294372c-.4393822,0-.7832765.12749-1.0309912.382643-.2480606.25498-.371918.5950687-.371918,1.0202661v3.5923816h6.5467942v1.2754192h-6.5467942v3.8048073c0,.4251974.1238573.7652861.371918,1.0202661.2477147.255153.591609.382643,1.0309912.382643h7.2695259v1.2754192h-6.6319028c-1.091536,0-1.9312057-.2975344-2.5190091-.8927761Z"/>
    <path class="st5" d="M26.046127,31.0654238c-.1692434-.0492411-.306389-.1248767-.4056007-.2318808-.1842313-.1982244-.2762806-.5877761-.2762806-1.1690199v-8.0136969h-1.3815358v8.0562399c0,.9351828.1769363,1.6333451.5313395,2.0936581.3538727.4606446.843034.6765427,1.4665554.6483576h.0655221v-1.383658Z"/>
    <path class="st5" d="M44.6864215,31.0654229c-.1692434-.0492411-.306389-.1248767-.4056007-.2318808-.1842313-.1982244-.2762806-.5877761-.2762806-1.1690199v-8.0136969h-1.3815358v8.0562399c0,.9351828.1769363,1.6333451.5313395,2.0936581.3538727.4606446.843034.6765427,1.4665554.6483576h.0655221v-1.383658Z"/>
  </g>
  <g>
    <path class="st8" d="M97.8762904,18.3625858"/>
    <path class="st6" d="M97.8762904,18.3625858s.2103594-1.7944863,2.5434037-5.551338c2.3330894-3.756846,8.2827721-8.2124511,11.0490368-9.011589,2.8318863-.8181045,4.8059973-.8594452,5.6952295-.660775.8892774.1986759,1.5762739.359458,1.5762739.359458l-.8735715,2.3930922s-1.0645694-.0824276-2.6365107.1498038c-2.7840466.4113032-5.6807873,2.0377186-5.6808325,2.0377355-4.0658805,2.2515927-6.2496739,5.3039592-6.7178714,5.978443-1.2014542,1.7308617-1.9013584,3.3556524-2.3129155,4.5178306l-2.6422424-.2126611Z"/>
    <g>
      <path class="st2" d="M86.3642018,8.5589647"/>
      <path class="st0" d="M104.1770084,16.8764063c-.5057472.0598109-1.0325709-.4032302-1.5687821-.4081383-.828891-.0288731-1.92415-.1462158-2.428137-.2224547-3.0531676-.5124041-6.2496739-1.8831026-8.6430595-3.8577664-2.1749927-1.7942381-2.7833245-2.893102-2.9520723-3.3963838.3072123-.0635061.7548297-.0950533,1.3069724-.0825969-1.293478-.1687761-2.4953835-.0290423-3.4563302.4088379.025003.3186814.0814178.7756919.2227255,1.3069216.7166482,2.6942681,2.8093204,4.2612449,3.8543477,5.0216032,3.9474546,2.872189,8.6067735,2.9063651,11.5646678,2.9280622,1.1273929.0082704,2.0547615-.0530412,2.6673357-.1069286l.0296516-.0295839c-.1757884-.8659104-.5889251-1.4510896-.5973196-1.5615723Z"/>
      <path class="st2" d="M86.4315249,9.3012958c-.0187009-.0820968-.0333998-.1612389-.0444333-.2373888.0110335.0761686.025695.1552359.0444333.2373888Z"/>
      <path class="st2" d="M104.177005,16.8764082c.004189-.0005049.0086772-.0005797.0128662-.0010847-.0107717-.014755-.0138386-.0116506-.0128662.0010847Z"/>
      <path class="st2" d="M86.3818554,9.0237749c-.0100237-.0773655-.0174292-.1525804-.0204962-.2237185.0030295.0711381.0104725.146353.0204962.2237185Z"/>
      <path class="st2" d="M86.3624065,8.5987041c-.0029173.0642375-.004002.1305321-.0010472.2007725-.0029921-.0702779-.0018327-.1364977.0010472-.2007725Z"/>
      <path class="st2" d="M94.118181,9.5974615c.0232639.0066014.0468644.0136703.0702031.0203652-.0233761-.0067136-.0468644-.0137638-.0702031-.0203652Z"/>
      <path class="st2" d="M94.8556685,9.8210304c.0043386.0013839.0085276.0026555.0128662.0040394-.0043386-.0013839-.0085276-.0026368-.0128662-.0040394Z"/>
      <path class="st2" d="M90.3652903,8.9297656c.0129036.0008041.0259568.0016644.0389726.0025246-.0130532-.0008415-.0260316-.0017205-.0389726-.0025246Z"/>
      <path class="st2" d="M95.546329,10.0597844c.0344844.012567.068894.025134.1034532.0379441-.0345592-.0128288-.0689688-.0253771-.1034532-.0379441Z"/>
      <path class="st2" d="M96.3314289,10.3642532c.0190375.0078544.0381498.0163072.0571873.024255-.0190375-.0079479-.0381498-.0164007-.0571873-.024255Z"/>
    </g>
    <path class="st9" d="M104.7446886,18.4675647s7.4818725-1.0173048,11.9958396-5.0421731c4.5139672-4.0248683,4.1722489-7.0244518,4.0518063-7.4253139s-.6872884-1.6451662-1.1698645-1.9699899-1.0298954-.5757002-1.0298954-.5757002c0,0-.5475624,3.4918251-4.9212756,8.0228652-2.9201277,3.0251677-9.1150029,5.2500944-9.0620633,5.2232748l.1354528,1.7670371Z"/>
    <path class="st7" d="M99.9041533,21.4518025c.1699664-1.6133046.5106665-2.605821.6237669-2.9017278-.7786142-.0222951-1.7665046-.084814-2.6516298-.1874889-1.1476571,2.1912063-2.0404096,6.7227456-.8517277,11.8990833,1.1255425,4.9014736,4.1931523,6.706611,5.0074206,6.6990063.7365513-.0068826,1.1041048-.2888211,1.10415-.2888436.2282316-.1731708.4368309-.3641912.4368309-.3641912,0,0-3.0177843-4.5351386-3.4765492-8.4053953-.4587198-3.8702567-.3977467-4.4995748-.1922616-6.4504428Z"/>
    <path class="st1" d="M100.4196941,12.8112478c.3179537-.5119754.7048688-1.0369938,1.1399395-1.5639078-1.8730608-1.6933685-5.2659808-3.7464375-7.3712448-4.3060721-4.1167441-1.0942887-6.3683255-.3662447-7.4303223.6957973l-.1017271.1015917-.071218.1247669c-.1604436.2806522-.325942.7846393-.149973,1.5373703.9611272-.43823,2.1633938-.5780258,3.4573231-.4091876,2.472276.0560086,6.7513141.7958996,10.5262298,3.8213112.0003611-.0005641.0006318-.0011057.0009929-.0016699Z"/>
    <path class="st4" d="M102.8314483,14.0574051c-.1598118.23024-.3094238.4581105-.4520403.6837696.3141175.9238484,2.1498542,6.5767442,1.8860588,11.7626837-.0998767,1.9638209-.5395509,4.617775-2.0004228,7.7386855l1.3079201,2.0650967c1.1582179-1.5046949,2.5754022-3.7933972,3.3175047-6.8321226,1.9368772-7.9311501-2.3137279-14.7106265-3.4007278-16.2983639-.3238659.4048099-.5434322.7147752-.6582927.880251Z"/>
  </g>
</svg>