<?xml version="1.0" encoding="utf-8"?>
<!-- Generator: Adobe Illustrator 22.1.0, SVG Export Plug-In . SVG Version: 6.00 Build 0)  -->
<svg version="1.1" id="レイヤー_1" xmlns="http://www.w3.org/2000/svg" xmlns:xlink="http://www.w3.org/1999/xlink" x="0px"
	 y="0px" width="76px" height="20px" viewBox="0 0 76 20" style="enable-background:new 0 0 76 20;" xml:space="preserve">
<style type="text/css">
	.st0{fill:#FFFFFF;}
</style>
<g>
	<path class="st0" d="M8.7,19.6c-0.1-0.8-0.5-1.9-1.1-3.3L4.2,7.9C3.7,6.8,3.5,6.2,3,4.2C3.1,5.5,3.2,7.5,3.2,8v8
		c0,1.7,0,2.6,0.2,3.6H0c0.1-1,0.2-1.9,0.2-3.6V3.8c0-1.6,0-2.6-0.2-3.6h4.4C4.5,1,4.9,2,5.3,3.1l4.9,12.1l4.8-12.1
		c0.5-1.2,0.7-2,0.9-2.9h4.4C20,1.3,20,2.1,20,3.8V16c0,1.8,0,2.7,0.2,3.6h-3.3c0.1-1,0.2-1.9,0.2-3.6V7.9c0.1-2.1,0.2-3.4,0.2-3.7
		c-0.3,1.3-0.8,2.7-1.1,3.6l-3.6,8.6c-0.5,1.1-0.9,2.5-1.1,3.2H8.7z"/>
	<path class="st0" d="M37.2,19.7c-0.9-0.1-1.6-0.2-3.1-0.2h-7.5c-1.4,0-2.1,0-3,0.1c0.1-1,0.2-1.8,0.2-3.2V3.2c0-1.3,0-2-0.2-3.1
		c1,0,1.6,0.1,3,0.1h7.2c1.2,0,2,0,3.1-0.2v3.2C36,3.1,35.2,3,33.8,3h-6.9v5h5.8c1.2,0,2.1,0,3.1-0.2v3.2c-1-0.1-1.6-0.2-3.1-0.2
		h-5.8v5.7h7.2c1.3,0,2,0,3.1-0.2V19.7z"/>
	<path class="st0" d="M52.4,19.6C52,18.7,51.6,18,50.9,17l-6.2-9.5c-0.5-0.7-1.1-1.8-1.6-2.9c0,0.3,0,0.3,0.1,1.2
		c0,0.5,0.1,1.6,0.1,2.1v8c0,1.6,0.1,2.8,0.2,3.7h-3.5c0.1-0.8,0.2-2,0.2-3.7V3.3c0-1.3,0-2.1-0.2-3.1h3.7c0.2,0.6,0.6,1.3,1.5,2.6
		l6,9.3c0.6,0.9,1.3,2.1,1.9,3.1c-0.1-0.9-0.2-2.4-0.2-3.4V3.5c0-1.4,0-2.4-0.2-3.4h3.5C56,1.1,56,2,56,3.5v12.9
		c0,1.4,0,2.3,0.2,3.1H52.4z"/>
	<path class="st0" d="M76,0.2c-0.1,0.9-0.2,1.8-0.2,3.3v8.6c0,5-2.9,7.9-8.1,7.9c-2.7,0-4.9-0.8-6.2-2.3c-1.2-1.3-1.8-3.2-1.8-5.6
		V3.5c0-1.5,0-2.5-0.2-3.3h3.6c-0.1,0.8-0.2,1.8-0.2,3.3v8.6c0,3.3,1.7,5,4.9,5c3.2,0,4.9-1.7,4.9-5V3.5c0-1.6,0-2.4-0.2-3.3H76z"/>
</g>
</svg>
