<?xml version="1.0" encoding="UTF-8"?>
<svg id="_レイヤー_1" data-name="レイヤー_1" xmlns="http://www.w3.org/2000/svg" width="330" height="80" version="1.1" xmlns:xlink="http://www.w3.org/1999/xlink" viewBox="0 0 330 80">
  <!-- Generator: Adobe Illustrator 30.0.0, SVG Export Plug-In . SVG Version: 2.1.1 Build 123)  -->
  <defs>
    <style>
      .st0 {
        fill: url(#_名称未設定グラデーション_100);
      }

      .st1 {
        fill: url(#_名称未設定グラデーション_34);
      }

      .st2 {
        fill: #fff;
      }

      .st3 {
        fill: #1e7cb0;
      }

      .st4 {
        fill: #929292;
      }

      .st5 {
        fill: url(#_名称未設定グラデーション_66);
      }

      .st6 {
        fill: #06496d;
      }

      .st7 {
        fill: #31ab4a;
      }

      .st8 {
        fill: url(#_名称未設定グラデーション_80);
      }
    </style>
    <linearGradient id="_名称未設定グラデーション_80" data-name="名称未設定グラデーション 80" x1="156.6888085" y1="36.2807295" x2="156.6888085" y2="36.2807295" gradientUnits="userSpaceOnUse">
      <stop offset=".0060143" stop-color="#a6aeab"/>
      <stop offset=".2450818" stop-color="#94a79f"/>
      <stop offset=".7199723" stop-color="#669581"/>
      <stop offset=".9910591" stop-color="#4a8a6f"/>
    </linearGradient>
    <linearGradient id="_名称未設定グラデーション_34" data-name="名称未設定グラデーション 34" x1="158.5152268" y1="28.646282" x2="203.694611" y2="4.5283854" gradientUnits="userSpaceOnUse">
      <stop offset=".0060135" stop-color="#929292"/>
      <stop offset=".2451388" stop-color="#949595"/>
      <stop offset=".4694051" stop-color="#9ba19f"/>
      <stop offset=".6877489" stop-color="#a6b4af"/>
      <stop offset=".9011629" stop-color="#b6cec7"/>
      <stop offset=".9910583" stop-color="#bfdcd3"/>
    </linearGradient>
    <linearGradient id="_名称未設定グラデーション_100" data-name="名称未設定グラデーション 100" x1="129.3505701" y1="19.3489393" x2="172.689847" y2="35.562859" gradientUnits="userSpaceOnUse">
      <stop offset=".0056136" stop-color="#b1c7db"/>
      <stop offset=".1673507" stop-color="#a2c2c9"/>
      <stop offset=".4898518" stop-color="#7bb79c"/>
      <stop offset=".939205" stop-color="#3ea453"/>
      <stop offset=".9999976" stop-color="#36a249"/>
    </linearGradient>
    <linearGradient id="_名称未設定グラデーション_66" data-name="名称未設定グラデーション 66" x1="172.752223" y1="76.9843702" x2="171.7890644" y2="24.4593013" gradientUnits="userSpaceOnUse">
      <stop offset=".0184353" stop-color="#e5e7e4"/>
      <stop offset=".2102555" stop-color="#abc6d1"/>
      <stop offset=".4019687" stop-color="#7aa9c1"/>
      <stop offset=".5819724" stop-color="#5393b5"/>
      <stop offset=".7468761" stop-color="#3783ac"/>
      <stop offset=".8914389" stop-color="#2679a6"/>
      <stop offset=".9999976" stop-color="#2176a5"/>
    </linearGradient>
  </defs>
  <g>
    <path class="st8" d="M156.6888085,36.2807295"/>
    <path class="st1" d="M156.6888085,36.2807295s.4778165-4.0760487,5.7771616-12.6094716c5.2994476-8.5334101,18.8137311-18.6540018,25.0971055-20.469187,6.4324295-1.8582665,10.9164828-1.9521691,12.936311-1.5009036,2.0199307.4512783,3.5803948.8164835,3.5803948.8164835l-1.9842559,5.4357396s-2.418094-.1872285-5.9886475.3402687c-6.3237649.9342461-12.9035066,4.6285337-12.9036091,4.6285721-9.2353601,5.1143335-14.1956922,12.0475681-15.2591697,13.5796103-2.7290182,3.93153-4.3188012,7.622127-5.253624,10.2619326l-6.0016667-.4830447Z"/>
    <g>
      <path class="st6" d="M130.5399134,14.0124977"/>
      <path class="st0" d="M171.0004437,32.9049777c-1.1487689.1358563-2.3454118-.915909-3.5633775-.9270574-1.8827673-.0655832-4.3705707-.3321189-5.5153416-.5052902-6.9350543-1.1638897-14.1956922-4.2773344-19.6320982-8.7626436-4.940342-4.0754849-6.3221247-6.5714765-6.7054235-7.7146456.697811-.1442496,1.7145423-.2159067,2.9686953-.187613-2.9380437-.3833629-5.668087-.0659676-7.8508095.9286463.0567926.7238623.1849348,1.7619292.5059053,2.96858,1.6278156,6.1198394,6.3811726,9.6791164,8.7548782,11.4062166,8.966364,6.5239742,19.5496772,6.6016027,26.268325,6.6508862,2.5607931.0187856,4.6672454-.1204793,6.0586644-.2428807l.0673515-.0671978c-.399291-1.9668542-1.3377018-3.2960473-1.3567693-3.5470009Z"/>
      <path class="st6" d="M130.6928332,15.6986501c-.0424777-.1864771-.0758652-.3662428-.100927-.539212.0250618.1730117.0583644.3526074.100927.539212Z"/>
      <path class="st6" d="M171.000436,32.9049822c.009515-.0011469.0197097-.0013168.0292247-.0024637-.0244672-.0335149-.0314335-.0264636-.0292247.0024637Z"/>
      <path class="st6" d="M130.5800124,15.068281c-.022768-.1757303-.0395892-.3465756-.0465556-.5081608.0068814.1615852.0237875.3324305.0465556.5081608Z"/>
      <path class="st6" d="M130.5358356,14.1027628c-.0066265.1459109-.0090902.2964944-.0023788.4560406-.0067964-.1596312-.0041628-.3100448.0023788-.4560406Z"/>
      <path class="st6" d="M148.1525287,16.3713695c.0528423.0149946.1064491.0310512.1594613.0462582-.0530971-.0152495-.1064491-.0312636-.1594613-.0462582Z"/>
      <path class="st6" d="M149.8276794,16.8791905c.0098548.0031434.0193698.0060318.0292247.0091752-.0098548-.0031434-.0193698-.0059894-.0292247-.0091752Z"/>
      <path class="st6" d="M139.6281031,14.8547456c.0293096.0018265.0589591.0037805.0885235.0057345-.0296494-.0019115-.059129-.0039079-.0885235-.0057345Z"/>
      <path class="st6" d="M151.396466,17.4215033c.0783289.028545.1564879.05709.2349867.0861873-.0784988-.0291397-.1566578-.0576422-.2349867-.0861873Z"/>
      <path class="st6" d="M153.179765,18.1130828c.0432423.0178406.0866545.0370406.1298968.0550936-.0432423-.018053-.0866545-.0372529-.1298968-.0550936Z"/>
    </g>
    <path class="st7" d="M172.2898892,36.5191816s16.9945441-2.3107359,27.2477012-11.4529395c10.2531571-9.1422036,9.4769684-15.9555454,9.2033915-16.8660754-.2735769-.9105299-1.5611269-3.7368786-2.6572644-4.4746927s-2.3393346-1.3076622-2.3393346-1.3076622c0,0-1.2437493,7.9314338-11.1783293,18.2233707-6.6328636,6.8714544-20.7040844,11.925218-20.5838358,11.8642992l.3076714,4.0136999Z"/>
    <path class="st4" d="M161.2949557,43.2976666c.3860667-3.6645073,1.1599429-5.9189381,1.4168424-6.5910695-1.768567-.0506418-4.0124902-.1926489-6.0229896-.4258677-2.6068218,4.9771701-4.634646,15.2702412-1.9346392,27.0279262,2.5565901,11.1333506,9.5244488,15.2335926,11.3740016,15.216319,1.6730242-.0156333,2.5078961-.6560367,2.5079986-.6560879.518412-.3933452.9922305-.8272346.9922305-.8272346,0,0-6.8546835-10.3012466-7.8967357-19.0922609-1.0419496-8.7910143-.9034536-10.2204658-.4367085-14.6517246Z"/>
    <path class="st3" d="M162.4659701,23.6712579c.7222093-1.1629158,1.6010595-2.3554581,2.589292-3.552306-4.2545251-3.8463667-11.9613028-8.5097678-16.7432611-9.7809382-9.350893-2.4855993-14.4652009-.831899-16.8774516,1.5804543l-.231066.2307584-.1617667.2833992c-.3644363.6374817-.7403542,1.7822526-.3406531,3.4920279,2.1831325-.9954084,4.913996-1.3129447,7.8530648-.9294408,5.6156.1272195,15.3351324,1.8078298,23.9095864,8.6798381.0008201-.0012814.0014352-.0025116.0022553-.003793Z"/>
    <path class="st5" d="M167.9440992,26.501816c-.3630011.5229738-.7028342,1.0405657-1.0267776,1.5531344.7134956,2.0984562,4.8832419,14.9386093,4.2840491,26.718104-.2268629,4.4606802-1.2255517,10.4889493-4.5438189,17.5778767l2.9708481,4.6907211c2.63081-3.417808,5.8498439-8.6164334,7.5354773-15.5186833,4.3994795-18.0150465-5.2554692-33.4141475-7.7245126-37.0205808-.7356386.919497-1.2343679,1.6235613-1.4952654,1.9994279Z"/>
  </g>
  <g>
    <path class="st2" d="M224.3653943,67.765755h-2.3145617c-6.7282096,0-11.6112005-6.3807614-11.6112005-15.1725446,0-8.7658685,4.8829909-15.1283937,11.6112005-15.1283937h2.8669275v3.6189321h-2.8045404c-5.0159235,0-8.6564511,4.8402797-8.6564511,11.5094615,0,6.6941366,3.6405277,11.5531325,8.6564511,11.5531325h3.1932601l-.9410855,3.619412Z"/>
    <path class="st2" d="M242.3112858,67.765755h-3.3170745l-7.5953904-15.9773383h2.9878626c2.8736462,0,4.1597804-2.666329,4.1597804-5.308663,0-2.6860049-1.2573402-5.3960049-4.0661997-5.3960049h-4.4093288v26.6820061h-2.9230759v-30.3009383h7.457179c4.0412449,0,6.8640215,3.7072339,6.8640215,9.014937,0,4.3666176-2.2185815,7.8036674-5.3460952,8.4155409l6.1883212,12.8704603Z"/>
    <g>
      <path class="st2" d="M272.1107738,67.765755h-1.2530211l-.9410855-3.619412h2.0064654c4.7630157,0,8.2197414-4.8589959,8.2197414-11.5531325,0-6.6691818-3.4567257-11.5094615-8.2197414-11.5094615h-3.6285302v26.6820061h-2.922596v-30.3009383h6.6451868c6.4561058,0,11.1423374,6.3625252,11.1423374,15.1283937,0,8.7917832-4.6468797,15.1725446-11.0487568,15.1725446Z"/>
      <path class="st2" d="M287.6945934,67.765755h-2.7210377l-.9410855-3.619412h3.5680627c2.7963821,0,5.6273171-2.3481547,5.6273171-6.8366672,0-2.6845652-.8499044-4.4928315-3.7883371-8.0628138-3.4024969-4.185695-5.0260014-6.4196334-4.7673348-11.4326774l.0182362-.3493678h3.1510288l-.029274.3959182c-.275943,3.7269098.6757004,5.0648733,3.72595,8.7327554,2.9816238,3.6698016,4.7063874,6.590958,4.7063874,10.6725145,0,6.1820825-3.5157535,10.4997502-8.5499131,10.4997502Z"/>
      <path class="st2" d="M310.808057,67.765755h-12.6141933v-30.3009383h13.0408251v3.6189321h-10.1177491v9.5255515h9.4933982v3.619412h-9.4933982v9.9176305h10.6317229l-.9406056,3.619412Z"/>
      <path class="st2" d="M326.8281064,67.765755h-2.3145617c-6.7277297,0-11.6107206-6.3807614-11.6107206-15.1725446,0-8.7658685,4.8829909-15.1283937,11.6107206-15.1283937h2.8669275v3.6189321h-2.8040605c-5.0164034,0-8.656931,4.8402797-8.656931,11.5094615,0,6.6941366,3.6405277,11.5531325,8.656931,11.5531325h3.1932601l-.9415654,3.619412Z"/>
      <path class="st2" d="M254.4830335,37.1154283h-1.2827749l-10.0476836,30.6503061h3.1505489l2.5924243-8.0786505h9.861962l2.6231379,8.0786505h3.150069l-10.0476836-30.6503061ZM250.0689057,56.1113428l3.7437064-11.6654293,3.7998548,11.6654293h-7.5435611Z"/>
    </g>
  </g>
  <g>
    <path class="st2" d="M13.3501109,67.1551607h-3.2369313v-27.1926222H2.2303282v-3.4567259h19.0031141v3.4567259h-7.8833314v27.1926222Z"/>
    <path class="st2" d="M22.875988,67.1551607h-3.1980593v-10.828003c0-2.1907474.280742-3.9903756.8345476-5.3499347h0c.5696423-1.3969914,1.5260847-2.4561326,2.8424528-3.1481496,1.2914132-.6790597,3.0377724-1.0231486,5.1896479-1.0231486h.3685639v3.083363h-.3685639c-1.4708961,0-2.6288969.2183549-3.4418489.6493059-.7999947.4232726-1.3542802,1.0466638-1.6950098,1.9056863-.3527271.8882965-.5317301,2.1038854-.5317301,3.6131735v11.0977073Z"/>
    <path class="st2" d="M63.4532151,67.1551607h-3.1980593v-9.9819378c0-1.5179264-.3205738-2.8611689-.9526032-3.9922952-.6301098-1.1263273-1.4948912-2.004066-2.570349-2.6087411-1.0797769-.6061148-2.3064035-.9137312-3.6458068-.9137312-1.3653179,0-2.6049018.3076164-3.6841989.9142111-1.0749779.6041952-1.9325607,1.4804941-2.5492333,2.6053817-.6200319,1.1316062-.9348469,2.4758085-.9348469,3.9951746v9.9819378h-3.1980593v-20.349236h3.1980593v3.3521075c.6646627-.8609421,1.4843333-1.5678361,2.4498939-2.1125236,1.4593785-.8225501,3.2412504-1.2395839,5.2957059-1.2395839,1.7223642,0,3.3492281.4304711,4.835481,1.2794157h0c1.486253.8499044,2.6965629,2.0726918,3.5973368,3.6347691.8460652,1.4699363,1.3000514,3.1788633,1.3518807,5.0845496h.004799v10.3505017Z"/>
    <path class="st2" d="M86.9522104,67.2765756h-3.0795238v-22.714788h-6.6125539v-3.5237913h16.3055914v3.5237913h-6.6135137v22.714788Z"/>
    <path class="st2" d="M111.2643127,67.2765756h-10.619726c-1.7876307,0-3.1942201-.591273-4.1813762-1.7566983-.9981938-1.1782658-1.5044892-2.8359091-1.5044892-4.9264596v-12.871652c0-2.0905505.5062954-3.7481938,1.5044892-4.9264596.9881159-1.1660368,2.3947053-1.7573098,4.1813762-1.7573098h10.1004733v3.5237913h-11.074672c-.5461272,0-.9506836.1675375-1.2376643.5111729-.2778626.3338522-.4131946.7789884-.4131946,1.3617011v5.7720961h9.9982544v3.5231799h-9.9982544v6.1505842c0,.5827127.135332,1.0278489.4131946,1.3617011.2865008.3436354.6915371.5105615,1.2376643.5105615h11.5939248v3.5237913Z"/>
    <path class="st2" d="M128.9629659,67.2768028h-10.619726c-1.7876307,0-3.1942201-.591273-4.1813762-1.7566983-.9981938-1.1788773-1.5044892-2.8365205-1.5044892-4.9264596v-12.871652c0-2.089939.5062954-3.7475823,1.5044892-4.9264596.9881159-1.1660368,2.3947053-1.7573098,4.1813762-1.7573098h10.1004733v3.5237913h-11.0741921c-.5461272,0-.9511635.1669261-1.2376643.5111729-.2783425.3338522-.4136745.7789884-.4136745,1.3617011v5.7720961h9.9987343v3.5231799h-9.9987343v6.1505842c0,.5827127.135332,1.0278489.4136745,1.3610896.2860209.3442468.6910572.5111729,1.2376643.5111729h11.5934449v3.5237913Z"/>
    <g>
      <path class="st2" d="M35.5845675,45.6973538c-.6891376,0-1.2554206-.2173951-1.6834922-.6464265-.4290314-.4280716-.6464265-.9943546-.6464265-1.6830123,0-.6852984.2092368-1.2501417.6224314-1.6791731.4170338-.4319108.9785178-.6507456,1.6690952-.6507456.687218,0,1.2530211.2173951,1.6825324.6454667.4295113.4299912.6469064.9967541.6469064,1.684452,0,.6857783-.2092368,1.2506216-.6219515,1.6782133-.4165539.4319108-.9780379.6512255-1.6690952.6512255Z"/>
      <path class="st2" d="M37.6855734,67.0831756c-1.1392846,0-2.0645335-.4439083-2.7392741-1.321647-.6881778-.8945352-1.0375457-2.2444963-1.0375457-4.0124511v-14.9431528h3.2364514v14.8663687c0,1.1834355.2183549,1.6671756.4011971,1.8644148.1276536.1372516.3181743.2437896.5667629.3162547l.2653852.077264v3.1481496h-.4870994c-.0691057.0033593-.1382114.004799-.2058775.004799Z"/>
    </g>
    <g>
      <path class="st2" d="M70.1246418,45.6973538c-.6891376,0-1.2554206-.2173951-1.6834922-.6464265-.4290314-.4280716-.6464265-.9943546-.6464265-1.6830123,0-.6852984.2092368-1.2501417.6224314-1.6791731.4170338-.4319108.9780379-.6507456,1.6686153-.6507456.687218,0,1.253501.2173951,1.6830123.6454667.4295113.4299912.6469064.9967541.6469064,1.684452,0,.6862582-.2097167,1.2511015-.6229113,1.6786932-.4155941.4314309-.9770781.6507456-1.6681354.6507456Z"/>
      <path class="st2" d="M72.2256478,67.0831756c-1.1397645,0-2.0650134-.4439083-2.739754-1.321647-.6881778-.8945352-1.0375457-2.2444963-1.0375457-4.0124511v-14.9431528h3.2364514v14.8663687c0,1.1834355.2183549,1.6666957.401677,1.8639349.1276536.1377315.3181743.2442695.5667629.3167346l.2653852.077264v3.1481496h-.4870994c-.0691057.0033593-.1382114.004799-.2058775.004799Z"/>
    </g>
  </g>
</svg>